<mxfile host="Electron" modified="2023-06-12T21:44:12.926Z" agent="Mozilla/5.0 (Macintosh; Intel Mac OS X 10_15_7) AppleWebKit/537.36 (KHTML, like Gecko) draw.io/21.3.7 Chrome/112.0.5615.204 Electron/24.5.0 Safari/537.36" etag="XOgdF1dosv0nVY5AZxmf" version="21.3.7" type="device">
  <diagram id="zXryU9Ss0ixBQiL7pqN2" name="API">
    <mxGraphModel dx="1026" dy="663" grid="1" gridSize="10" guides="1" tooltips="1" connect="1" arrows="1" fold="1" page="1" pageScale="1" pageWidth="1169" pageHeight="827" math="0" shadow="0">
      <root>
        <mxCell id="0" />
        <mxCell id="1" parent="0" />
        <mxCell id="TVb--6SkpUj4nBwkmtgs-1" value="&lt;p style=&quot;margin: 4px 0px 0px; text-align: center; line-height: 120%;&quot;&gt;&lt;b&gt;Article&lt;/b&gt;&lt;/p&gt;&lt;hr size=&quot;1&quot;&gt;&amp;nbsp; id&lt;br&gt;&amp;nbsp; URL&lt;br&gt;&amp;nbsp; date&lt;br&gt;&amp;nbsp; head&lt;br&gt;&amp;nbsp; body" style="verticalAlign=top;align=left;overflow=fill;fontSize=12;fontFamily=Helvetica;html=1;whiteSpace=wrap;" parent="1" vertex="1">
          <mxGeometry x="360" y="160" width="140" height="110" as="geometry" />
        </mxCell>
        <mxCell id="TVb--6SkpUj4nBwkmtgs-7" value="&lt;p style=&quot;margin: 4px 0px 0px; text-align: center; line-height: 120%;&quot;&gt;&lt;b&gt;API source&lt;/b&gt;&lt;/p&gt;&lt;hr size=&quot;1&quot;&gt;&amp;nbsp; articles" style="verticalAlign=top;align=left;overflow=fill;fontSize=12;fontFamily=Helvetica;html=1;whiteSpace=wrap;" parent="1" vertex="1">
          <mxGeometry x="360" y="340" width="140" height="50" as="geometry" />
        </mxCell>
        <mxCell id="TVb--6SkpUj4nBwkmtgs-8" value="&lt;p style=&quot;margin: 4px 0px 0px; text-align: center; line-height: 120%;&quot;&gt;&lt;b&gt;API parser&lt;/b&gt;&lt;/p&gt;&lt;hr size=&quot;1&quot;&gt;&amp;nbsp; articles" style="verticalAlign=top;align=left;overflow=fill;fontSize=12;fontFamily=Helvetica;html=1;whiteSpace=wrap;" parent="1" vertex="1">
          <mxGeometry x="70" y="340" width="140" height="50" as="geometry" />
        </mxCell>
        <mxCell id="TVb--6SkpUj4nBwkmtgs-9" value="" style="endArrow=none;shadow=0;strokeWidth=1;rounded=0;endFill=0;edgeStyle=elbowEdgeStyle;elbow=vertical;" parent="1" source="TVb--6SkpUj4nBwkmtgs-8" target="TVb--6SkpUj4nBwkmtgs-1" edge="1">
          <mxGeometry x="0.5" y="41" relative="1" as="geometry">
            <mxPoint x="555" y="390" as="sourcePoint" />
            <mxPoint x="555" y="270" as="targetPoint" />
            <mxPoint x="-40" y="32" as="offset" />
          </mxGeometry>
        </mxCell>
        <mxCell id="TVb--6SkpUj4nBwkmtgs-10" value="1" style="resizable=0;align=left;verticalAlign=bottom;labelBackgroundColor=none;fontSize=12;" parent="TVb--6SkpUj4nBwkmtgs-9" connectable="0" vertex="1">
          <mxGeometry x="-1" relative="1" as="geometry">
            <mxPoint x="10" as="offset" />
          </mxGeometry>
        </mxCell>
        <mxCell id="TVb--6SkpUj4nBwkmtgs-11" value="0..*" style="resizable=0;align=right;verticalAlign=bottom;labelBackgroundColor=none;fontSize=12;" parent="TVb--6SkpUj4nBwkmtgs-9" connectable="0" vertex="1">
          <mxGeometry x="1" relative="1" as="geometry">
            <mxPoint x="30" y="20" as="offset" />
          </mxGeometry>
        </mxCell>
        <mxCell id="TVb--6SkpUj4nBwkmtgs-12" value="Generates&amp;nbsp;⏵" style="text;html=1;resizable=0;points=[];;align=center;verticalAlign=middle;labelBackgroundColor=none;rounded=0;shadow=0;strokeWidth=1;fontSize=12;" parent="TVb--6SkpUj4nBwkmtgs-9" vertex="1" connectable="0">
          <mxGeometry x="0.5" y="49" relative="1" as="geometry">
            <mxPoint x="-95" y="34" as="offset" />
          </mxGeometry>
        </mxCell>
        <mxCell id="TVb--6SkpUj4nBwkmtgs-14" value="" style="endArrow=none;shadow=0;strokeWidth=1;rounded=0;endFill=0;edgeStyle=elbowEdgeStyle;elbow=vertical;" parent="1" source="TVb--6SkpUj4nBwkmtgs-7" target="TVb--6SkpUj4nBwkmtgs-8" edge="1">
          <mxGeometry x="0.5" y="41" relative="1" as="geometry">
            <mxPoint x="450" y="450" as="sourcePoint" />
            <mxPoint x="450" y="370" as="targetPoint" />
            <mxPoint x="-40" y="32" as="offset" />
          </mxGeometry>
        </mxCell>
        <mxCell id="TVb--6SkpUj4nBwkmtgs-15" value="1" style="resizable=0;align=left;verticalAlign=bottom;labelBackgroundColor=none;fontSize=12;" parent="TVb--6SkpUj4nBwkmtgs-14" connectable="0" vertex="1">
          <mxGeometry x="-1" relative="1" as="geometry">
            <mxPoint x="-17" y="-5" as="offset" />
          </mxGeometry>
        </mxCell>
        <mxCell id="TVb--6SkpUj4nBwkmtgs-16" value="1" style="resizable=0;align=right;verticalAlign=bottom;labelBackgroundColor=none;fontSize=12;" parent="TVb--6SkpUj4nBwkmtgs-14" connectable="0" vertex="1">
          <mxGeometry x="1" relative="1" as="geometry">
            <mxPoint x="17" y="-5" as="offset" />
          </mxGeometry>
        </mxCell>
        <mxCell id="TVb--6SkpUj4nBwkmtgs-17" value="⏴&amp;nbsp;Parsed-by" style="text;html=1;resizable=0;points=[];;align=center;verticalAlign=middle;labelBackgroundColor=none;rounded=0;shadow=0;strokeWidth=1;fontSize=12;" parent="TVb--6SkpUj4nBwkmtgs-14" vertex="1" connectable="0">
          <mxGeometry x="0.5" y="49" relative="1" as="geometry">
            <mxPoint x="37" y="-64" as="offset" />
          </mxGeometry>
        </mxCell>
        <mxCell id="TVb--6SkpUj4nBwkmtgs-18" value="&lt;p style=&quot;margin: 4px 0px 0px; text-align: center; line-height: 140%;&quot;&gt;&lt;b&gt;Serializer&lt;/b&gt;&lt;/p&gt;&lt;hr size=&quot;1&quot;&gt;&amp;nbsp;&amp;nbsp;" style="verticalAlign=top;align=left;overflow=fill;fontSize=12;fontFamily=Helvetica;html=1;whiteSpace=wrap;" parent="1" vertex="1">
          <mxGeometry x="70" y="167.5" width="140" height="55" as="geometry" />
        </mxCell>
        <mxCell id="TVb--6SkpUj4nBwkmtgs-19" value="" style="endArrow=none;shadow=0;strokeWidth=1;rounded=0;endFill=0;edgeStyle=elbowEdgeStyle;elbow=vertical;" parent="1" source="TVb--6SkpUj4nBwkmtgs-18" target="TVb--6SkpUj4nBwkmtgs-1" edge="1">
          <mxGeometry x="0.5" y="41" relative="1" as="geometry">
            <mxPoint x="160" y="270.17" as="sourcePoint" />
            <mxPoint x="320" y="270.17" as="targetPoint" />
            <mxPoint x="-40" y="32" as="offset" />
          </mxGeometry>
        </mxCell>
        <mxCell id="TVb--6SkpUj4nBwkmtgs-20" value="1" style="resizable=0;align=left;verticalAlign=bottom;labelBackgroundColor=none;fontSize=12;" parent="TVb--6SkpUj4nBwkmtgs-19" connectable="0" vertex="1">
          <mxGeometry x="-1" relative="1" as="geometry">
            <mxPoint x="4" y="-5" as="offset" />
          </mxGeometry>
        </mxCell>
        <mxCell id="TVb--6SkpUj4nBwkmtgs-21" value="1..*" style="resizable=0;align=right;verticalAlign=bottom;labelBackgroundColor=none;fontSize=12;" parent="TVb--6SkpUj4nBwkmtgs-19" connectable="0" vertex="1">
          <mxGeometry x="1" relative="1" as="geometry">
            <mxPoint x="-5" y="-5" as="offset" />
          </mxGeometry>
        </mxCell>
        <mxCell id="TVb--6SkpUj4nBwkmtgs-22" value="⏴ Stored-by" style="text;html=1;resizable=0;points=[];;align=center;verticalAlign=middle;labelBackgroundColor=none;rounded=0;shadow=0;strokeWidth=1;fontSize=12;" parent="TVb--6SkpUj4nBwkmtgs-19" vertex="1" connectable="0">
          <mxGeometry x="0.5" y="49" relative="1" as="geometry">
            <mxPoint x="-41" y="34" as="offset" />
          </mxGeometry>
        </mxCell>
        <mxCell id="TVb--6SkpUj4nBwkmtgs-23" value="&lt;p style=&quot;margin: 4px 0px 0px; text-align: center; line-height: 140%;&quot;&gt;&lt;b&gt;Deserializer&lt;/b&gt;&lt;/p&gt;&lt;hr size=&quot;1&quot;&gt;&amp;nbsp;&amp;nbsp;" style="verticalAlign=top;align=left;overflow=fill;fontSize=12;fontFamily=Helvetica;html=1;whiteSpace=wrap;" parent="1" vertex="1">
          <mxGeometry x="360" y="30" width="140" height="55" as="geometry" />
        </mxCell>
        <mxCell id="TVb--6SkpUj4nBwkmtgs-24" value="" style="endArrow=none;shadow=0;strokeWidth=1;rounded=0;endFill=0;edgeStyle=elbowEdgeStyle;elbow=vertical;" parent="1" source="TVb--6SkpUj4nBwkmtgs-1" target="TVb--6SkpUj4nBwkmtgs-23" edge="1">
          <mxGeometry x="0.5" y="41" relative="1" as="geometry">
            <mxPoint x="530" y="300" as="sourcePoint" />
            <mxPoint x="530" y="220" as="targetPoint" />
            <mxPoint x="-40" y="32" as="offset" />
          </mxGeometry>
        </mxCell>
        <mxCell id="TVb--6SkpUj4nBwkmtgs-25" value="1..*" style="resizable=0;align=left;verticalAlign=bottom;labelBackgroundColor=none;fontSize=12;" parent="TVb--6SkpUj4nBwkmtgs-24" connectable="0" vertex="1">
          <mxGeometry x="-1" relative="1" as="geometry">
            <mxPoint x="10" as="offset" />
          </mxGeometry>
        </mxCell>
        <mxCell id="TVb--6SkpUj4nBwkmtgs-26" value="1" style="resizable=0;align=right;verticalAlign=bottom;labelBackgroundColor=none;fontSize=12;" parent="TVb--6SkpUj4nBwkmtgs-24" connectable="0" vertex="1">
          <mxGeometry x="1" relative="1" as="geometry">
            <mxPoint x="20" y="20" as="offset" />
          </mxGeometry>
        </mxCell>
        <mxCell id="TVb--6SkpUj4nBwkmtgs-27" value="Recovered-by" style="text;html=1;resizable=0;points=[];;align=center;verticalAlign=middle;labelBackgroundColor=none;rounded=0;shadow=0;strokeWidth=1;fontSize=12;" parent="TVb--6SkpUj4nBwkmtgs-24" vertex="1" connectable="0">
          <mxGeometry x="0.5" y="49" relative="1" as="geometry">
            <mxPoint x="94" y="20" as="offset" />
          </mxGeometry>
        </mxCell>
        <mxCell id="_BF_lIdjMNWHtdHu7YYb-1" value="&lt;p style=&quot;margin: 4px 0px 0px; text-align: center; line-height: 120%;&quot;&gt;&lt;b&gt;Web client&lt;/b&gt;&lt;/p&gt;&lt;hr size=&quot;1&quot;&gt;&amp;nbsp; request&lt;br&gt;&amp;nbsp; response" style="verticalAlign=top;align=left;overflow=fill;fontSize=12;fontFamily=Helvetica;html=1;whiteSpace=wrap;" parent="1" vertex="1">
          <mxGeometry x="570" y="460" width="140" height="70" as="geometry" />
        </mxCell>
        <mxCell id="_BF_lIdjMNWHtdHu7YYb-2" value="" style="endArrow=none;shadow=0;strokeWidth=1;rounded=0;endFill=0;edgeStyle=elbowEdgeStyle;elbow=vertical;" parent="1" source="TVb--6SkpUj4nBwkmtgs-7" target="_BF_lIdjMNWHtdHu7YYb-1" edge="1">
          <mxGeometry x="0.5" y="41" relative="1" as="geometry">
            <mxPoint x="510" y="205" as="sourcePoint" />
            <mxPoint x="650" y="205" as="targetPoint" />
            <mxPoint x="-40" y="32" as="offset" />
            <Array as="points">
              <mxPoint x="640" y="370" />
              <mxPoint x="630" y="370" />
              <mxPoint x="650" y="370" />
              <mxPoint x="580" y="370" />
            </Array>
          </mxGeometry>
        </mxCell>
        <mxCell id="_BF_lIdjMNWHtdHu7YYb-3" value="1" style="resizable=0;align=left;verticalAlign=bottom;labelBackgroundColor=none;fontSize=12;" parent="_BF_lIdjMNWHtdHu7YYb-2" connectable="0" vertex="1">
          <mxGeometry x="-1" relative="1" as="geometry">
            <mxPoint x="4" y="-5" as="offset" />
          </mxGeometry>
        </mxCell>
        <mxCell id="_BF_lIdjMNWHtdHu7YYb-4" value="1" style="resizable=0;align=right;verticalAlign=bottom;labelBackgroundColor=none;fontSize=12;" parent="_BF_lIdjMNWHtdHu7YYb-2" connectable="0" vertex="1">
          <mxGeometry x="1" relative="1" as="geometry">
            <mxPoint x="18" y="-5" as="offset" />
          </mxGeometry>
        </mxCell>
        <mxCell id="_BF_lIdjMNWHtdHu7YYb-5" value="Gets-pages-from ⏵" style="text;html=1;resizable=0;points=[];;align=center;verticalAlign=middle;labelBackgroundColor=none;rounded=0;shadow=0;strokeWidth=1;fontSize=12;" parent="_BF_lIdjMNWHtdHu7YYb-2" vertex="1" connectable="0">
          <mxGeometry x="0.5" y="49" relative="1" as="geometry">
            <mxPoint x="-110" y="-44" as="offset" />
          </mxGeometry>
        </mxCell>
        <mxCell id="R9hbl4w4Qf_KBuC6zPYW-1" value="&lt;p style=&quot;margin: 4px 0px 0px; text-align: center; line-height: 120%;&quot;&gt;&lt;b&gt;URL setter&lt;/b&gt;&lt;/p&gt;&lt;hr size=&quot;1&quot;&gt;&amp;nbsp; URL&lt;br&gt;&amp;nbsp; API key&lt;br&gt;&amp;nbsp; queries&lt;br&gt;&amp;nbsp; tags&lt;br&gt;&amp;nbsp; page size&lt;span style=&quot;white-space: pre;&quot;&gt;&#x9;&lt;/span&gt;" style="verticalAlign=top;align=left;overflow=fill;fontSize=12;fontFamily=Helvetica;html=1;whiteSpace=wrap;" parent="1" vertex="1">
          <mxGeometry x="360" y="460" width="140" height="110" as="geometry" />
        </mxCell>
        <mxCell id="R9hbl4w4Qf_KBuC6zPYW-2" value="" style="endArrow=none;shadow=0;strokeWidth=1;rounded=0;endFill=0;edgeStyle=elbowEdgeStyle;elbow=vertical;" parent="1" source="R9hbl4w4Qf_KBuC6zPYW-1" target="TVb--6SkpUj4nBwkmtgs-7" edge="1">
          <mxGeometry x="0.5" y="41" relative="1" as="geometry">
            <mxPoint x="540" y="630" as="sourcePoint" />
            <mxPoint x="540" y="550" as="targetPoint" />
            <mxPoint x="-40" y="32" as="offset" />
          </mxGeometry>
        </mxCell>
        <mxCell id="R9hbl4w4Qf_KBuC6zPYW-3" value="1" style="resizable=0;align=left;verticalAlign=bottom;labelBackgroundColor=none;fontSize=12;" parent="R9hbl4w4Qf_KBuC6zPYW-2" connectable="0" vertex="1">
          <mxGeometry x="-1" relative="1" as="geometry">
            <mxPoint x="8" y="-2" as="offset" />
          </mxGeometry>
        </mxCell>
        <mxCell id="R9hbl4w4Qf_KBuC6zPYW-4" value="1" style="resizable=0;align=right;verticalAlign=bottom;labelBackgroundColor=none;fontSize=12;" parent="R9hbl4w4Qf_KBuC6zPYW-2" connectable="0" vertex="1">
          <mxGeometry x="1" relative="1" as="geometry">
            <mxPoint x="18" y="18" as="offset" />
          </mxGeometry>
        </mxCell>
        <mxCell id="R9hbl4w4Qf_KBuC6zPYW-5" value="Gets-URL-from" style="text;html=1;resizable=0;points=[];;align=center;verticalAlign=middle;labelBackgroundColor=none;rounded=0;shadow=0;strokeWidth=1;fontSize=12;" parent="R9hbl4w4Qf_KBuC6zPYW-2" vertex="1" connectable="0">
          <mxGeometry x="0.5" y="49" relative="1" as="geometry">
            <mxPoint x="99" y="15" as="offset" />
          </mxGeometry>
        </mxCell>
        <mxCell id="n9R_a3ECF8lbJZXGguqK-1" value="&lt;p style=&quot;margin: 4px 0px 0px; text-align: center; line-height: 140%;&quot;&gt;&lt;b&gt;Storage&lt;/b&gt;&lt;/p&gt;&lt;hr size=&quot;1&quot;&gt;&amp;nbsp; tokens" style="verticalAlign=top;align=left;overflow=fill;fontSize=12;fontFamily=Helvetica;html=1;whiteSpace=wrap;" parent="1" vertex="1">
          <mxGeometry x="650" y="290" width="140" height="55" as="geometry" />
        </mxCell>
        <mxCell id="n9R_a3ECF8lbJZXGguqK-2" value="" style="endArrow=none;shadow=0;strokeWidth=1;rounded=0;endFill=0;edgeStyle=elbowEdgeStyle;elbow=vertical;" parent="1" source="n9R_a3ECF8lbJZXGguqK-6" target="n9R_a3ECF8lbJZXGguqK-1" edge="1">
          <mxGeometry x="0.5" y="41" relative="1" as="geometry">
            <mxPoint x="690" y="230" as="sourcePoint" />
            <mxPoint x="640" y="195" as="targetPoint" />
            <mxPoint x="-40" y="32" as="offset" />
          </mxGeometry>
        </mxCell>
        <mxCell id="n9R_a3ECF8lbJZXGguqK-3" value="1" style="resizable=0;align=left;verticalAlign=bottom;labelBackgroundColor=none;fontSize=12;" parent="n9R_a3ECF8lbJZXGguqK-2" connectable="0" vertex="1">
          <mxGeometry x="-1" relative="1" as="geometry">
            <mxPoint x="10" y="20" as="offset" />
          </mxGeometry>
        </mxCell>
        <mxCell id="n9R_a3ECF8lbJZXGguqK-4" value="1..*" style="resizable=0;align=right;verticalAlign=bottom;labelBackgroundColor=none;fontSize=12;" parent="n9R_a3ECF8lbJZXGguqK-2" connectable="0" vertex="1">
          <mxGeometry x="1" relative="1" as="geometry">
            <mxPoint x="30" as="offset" />
          </mxGeometry>
        </mxCell>
        <mxCell id="n9R_a3ECF8lbJZXGguqK-5" value="Organized-in" style="text;html=1;resizable=0;points=[];;align=center;verticalAlign=middle;labelBackgroundColor=none;rounded=0;shadow=0;strokeWidth=1;fontSize=12;" parent="n9R_a3ECF8lbJZXGguqK-2" vertex="1" connectable="0">
          <mxGeometry x="0.5" y="49" relative="1" as="geometry">
            <mxPoint x="-9" y="-18" as="offset" />
          </mxGeometry>
        </mxCell>
        <mxCell id="n9R_a3ECF8lbJZXGguqK-6" value="&lt;p style=&quot;margin: 4px 0px 0px; text-align: center; line-height: 120%;&quot;&gt;&lt;b&gt;Tokenizer&lt;/b&gt;&lt;/p&gt;&lt;hr size=&quot;1&quot;&gt;&amp;nbsp;&amp;nbsp;" style="verticalAlign=top;align=left;overflow=fill;fontSize=12;fontFamily=Helvetica;html=1;whiteSpace=wrap;" parent="1" vertex="1">
          <mxGeometry x="650" y="170" width="140" height="50" as="geometry" />
        </mxCell>
        <mxCell id="n9R_a3ECF8lbJZXGguqK-7" value="" style="endArrow=none;shadow=0;strokeWidth=1;rounded=0;endFill=0;edgeStyle=elbowEdgeStyle;elbow=vertical;" parent="1" source="TVb--6SkpUj4nBwkmtgs-1" target="n9R_a3ECF8lbJZXGguqK-6" edge="1">
          <mxGeometry x="0.5" y="41" relative="1" as="geometry">
            <mxPoint x="500" y="195" as="sourcePoint" />
            <mxPoint x="450" y="240" as="targetPoint" />
            <mxPoint x="-40" y="32" as="offset" />
          </mxGeometry>
        </mxCell>
        <mxCell id="n9R_a3ECF8lbJZXGguqK-8" value="1" style="resizable=0;align=left;verticalAlign=bottom;labelBackgroundColor=none;fontSize=12;" parent="n9R_a3ECF8lbJZXGguqK-7" connectable="0" vertex="1">
          <mxGeometry x="-1" relative="1" as="geometry">
            <mxPoint x="9" y="-5" as="offset" />
          </mxGeometry>
        </mxCell>
        <mxCell id="n9R_a3ECF8lbJZXGguqK-9" value="1" style="resizable=0;align=right;verticalAlign=bottom;labelBackgroundColor=none;fontSize=12;" parent="n9R_a3ECF8lbJZXGguqK-7" connectable="0" vertex="1">
          <mxGeometry x="1" relative="1" as="geometry">
            <mxPoint x="-10" y="-5" as="offset" />
          </mxGeometry>
        </mxCell>
        <mxCell id="n9R_a3ECF8lbJZXGguqK-10" value="Processed-by&amp;nbsp;⏵" style="text;html=1;resizable=0;points=[];;align=center;verticalAlign=middle;labelBackgroundColor=none;rounded=0;shadow=0;strokeWidth=1;fontSize=12;" parent="n9R_a3ECF8lbJZXGguqK-7" vertex="1" connectable="0">
          <mxGeometry x="0.5" y="49" relative="1" as="geometry">
            <mxPoint x="-38" y="34" as="offset" />
          </mxGeometry>
        </mxCell>
      </root>
    </mxGraphModel>
  </diagram>
</mxfile>
